<?xml version="1.0" encoding="UTF-8" standalone="no"?>
<svg
   xmlns:dc="http://purl.org/dc/elements/1.1/"
   xmlns:cc="http://creativecommons.org/ns#"
   xmlns:rdf="http://www.w3.org/1999/02/22-rdf-syntax-ns#"
   xmlns:svg="http://www.w3.org/2000/svg"
   xmlns="http://www.w3.org/2000/svg"
   xmlns:sodipodi="http://sodipodi.sourceforge.net/DTD/sodipodi-0.dtd"
   xmlns:inkscape="http://www.inkscape.org/namespaces/inkscape"
   viewBox="0 0 366.48404 394.01148"
   height="394.01147"
   width="366.48404"
   id="svg5846"
   version="1.1"
   sodipodi:docname="datadog.svg"
   inkscape:version="0.92.2 5c3e80d, 2017-08-06">
  <sodipodi:namedview
     pagecolor="#ffffff"
     bordercolor="#666666"
     borderopacity="1"
     objecttolerance="10"
     gridtolerance="10"
     guidetolerance="10"
     inkscape:pageopacity="0"
     inkscape:pageshadow="2"
     inkscape:window-width="1102"
     inkscape:window-height="721"
     id="namedview6279"
     showgrid="false"
     fit-margin-top="0"
     fit-margin-left="0"
     fit-margin-right="0"
     fit-margin-bottom="0"
     inkscape:zoom="0.68472913"
     inkscape:cx="191.38918"
     inkscape:cy="46.572174"
     inkscape:window-x="0"
     inkscape:window-y="0"
     inkscape:window-maximized="0"
     inkscape:current-layer="g5858" />
  <metadata
     id="metadata5852">
    <rdf:RDF>
      <cc:Work
         rdf:about="">
        <dc:format>image/svg+xml</dc:format>
        <dc:type
           rdf:resource="http://purl.org/dc/dcmitype/StillImage" />
        <dc:title></dc:title>
      </cc:Work>
    </rdf:RDF>
  </metadata>
  <defs
     id="defs5850" />
  <g
     transform="translate(-329.24185,-14.925689)"
     id="g5858">
    <path
       id="path5862"
       d="M 436.04427,407.42263 C 431.90732,405.62803 426,401.25873 426,399.99347 c 0,-0.49761 1.9125,-0.17547 4.25,0.71588 2.71442,1.03508 7.50183,1.64242 13.25,1.68092 7.85925,0.0526 9.79368,-0.30313 15.2618,-2.80685 21.13096,-9.67539 25.19042,-35.98158 10.23151,-66.30251 -7.72998,-15.66825 -16.80594,-24.24223 -30.38644,-28.70577 -1.04122,-0.34222 -1.64271,-0.87263 -1.33665,-1.1787 0.85013,-0.85013 12.5643,2.38685 17.678,4.88496 2.49784,1.22023 7.52714,5.18639 11.17623,8.8137 6.26467,6.22726 11.50434,15.04724 16.78005,28.24598 1.10323,2.76003 1.28481,2.82093 6.36556,2.13486 7.87646,-1.06358 9.06705,-1.96233 8.37397,-6.32136 -0.31959,-2.01002 -2.59173,-19.40458 -5.04919,-38.65458 -2.45747,-19.25 -5.00734,-39.17679 -5.66638,-44.28177 -0.65905,-5.10497 -1.01903,-9.46099 -0.79997,-9.68006 0.21907,-0.21906 5.56727,-1.00165 11.88491,-1.73908 9.26079,-1.08097 11.4866,-1.64833 11.4866,-2.92793 0,-0.87293 -3.6,-4.3492 -8,-7.72503 -9.79445,-7.51465 -19.1161,-15.86337 -18.45272,-16.52674 0.2702,-0.2702 3.6326,1.5444 7.472,4.03245 9.57276,6.20345 24.95035,13.84857 33.8947,16.85109 9.69172,3.2534 21.03545,3.42329 29.02327,0.43466 6.0391,-2.25951 15.29716,-8.672 21.55491,-14.92975 4.69108,-4.69108 5.30227,-4.91246 3.98309,-1.44274 -1.53537,4.03832 -1.19019,5.10323 2.09526,6.4641 2.48468,1.02919 4.72646,1.02904 11.75,-7.8e-4 4.77372,-0.69994 9.4676,-1.68384 10.43084,-2.18643 2.5135,-1.31147 6.51434,-9.72315 8.36301,-17.58306 1.0975,-4.6662 1.44754,-9.60221 1.13053,-15.94191 -0.39515,-7.90241 -0.9485,-10.20334 -3.96802,-16.5 C 606.84701,174.79266 602.2239,167.45 598.50329,162.5 c -3.7206,-4.95 -7.11874,-10.125 -7.55142,-11.5 -0.43267,-1.375 -1.02038,-6.34454 -1.30602,-11.04342 -0.91603,-15.06932 -6.19547,-25.07048 -22.08646,-41.839737 -8.46162,-8.929281 -8.23215,-9.854942 0.71014,-2.864571 2.07851,1.624817 4.43367,2.691864 5.25,2.378608 2.20429,-0.845868 1.82213,-6.118113 -0.94611,-13.052419 C 571.23879,81.235307 569.87476,75.575 569.54222,72 c -0.33253,-3.575 -0.84332,-8.75 -1.13508,-11.5 -0.74895,-7.05918 0.92487,-4.716409 3.54722,4.964888 2.7271,10.068029 6.8296,17.779875 13.64512,25.649983 9.70858,11.210819 18.34867,16.112969 23.08796,13.099469 2.36927,-1.50652 3.3428,-6.117214 2.28667,-10.829856 -3.78737,-16.900032 -19.15228,-38.589107 -34.37915,-48.529544 -6.858,-4.477061 -12.3895,-5.039709 -19.18872,-1.95182 -3.95459,1.795991 -5.31714,3.202395 -14.62613,15.09688 -7.43394,9.49867 -15.71126,12.341828 -30.16377,10.360891 -3.96075,-0.54288 -4.57388,-0.919298 -4.07219,-2.5 0.75074,-2.365358 -2.36194,-2.523597 -6.59381,-0.335211 -2.79825,1.447033 -2.95034,1.421259 -2.95034,-0.5 0,-2.471829 -1.25606,-2.559237 -4.66635,-0.324725 -2.53086,1.658282 -2.57913,1.64785 -1.92414,-0.415843 1.5674,-4.938444 -3.63748,-3.358233 -11.40951,3.463949 -2.475,2.172521 -6.3,4.538456 -8.5,5.257635 -2.2,0.719178 -6.925,2.621613 -10.5,4.227633 -5.93541,2.666399 -6.84744,2.816793 -10.5,1.731439 -7.52458,-2.23592 -12.00391,-5.237844 -19.54687,-13.099769 L 424.40625,58 h -6.27127 c -5.44507,0 -8.13961,0.798401 -20.45312,6.060331 -15.50326,6.625006 -16.6781,7.343434 -14.90618,9.115351 0.90091,0.900908 0.45931,1.611332 -1.88948,3.039718 -2.6444,1.608154 -2.88317,2.083322 -1.73941,3.461465 1.13539,1.368073 0.96877,1.828999 -1.16052,3.210282 C 370.21392,87.929107 363.86906,96.128497 369,94.5 c 2.53806,-0.805549 2.52526,-0.696988 -0.63636,5.396903 -3.69721,7.126207 -3.45185,11.512377 1.16831,20.884887 3.0154,6.11709 5.79237,9.69226 13.38636,17.23414 9.99174,9.92316 16.99426,14.30683 24.86415,15.56527 5.22744,0.83591 13.1919,-2.68081 19.79753,-8.74161 10.65678,-9.7778 11.58886,-20.42373 4.30807,-49.205398 -1.09438,-4.326194 -1.80565,-8.049933 -1.58061,-8.274975 0.7432,-0.7432 7.87036,18.968923 10.28442,28.444393 4.57507,17.9577 4.21795,29.70366 -1.09509,36.01785 -5.59083,6.64432 -21.45487,10.05787 -31.48941,6.77574 -2.7991,-0.91554 -5.52085,-1.39789 -6.04832,-1.07189 -2.46561,1.52383 -0.30764,27.30653 3.00637,35.91922 0.62315,1.6195 1.55775,6.29465 2.0769,10.38923 0.97256,7.67083 2.34149,10.61667 4.54126,9.77254 0.73548,-0.28223 1.69118,0.74311 2.28777,2.45449 1.07396,3.08078 4.12865,4.08395 4.12865,1.35588 0,-3.91758 4.69973,2.33994 8.32416,11.08333 0.26108,0.62983 1.1973,0.53786 2.52913,-0.24845 1.95366,-1.15343 2.29476,-0.88706 4.48191,3.5 4.9805,9.99009 6.81141,24.19489 4.19197,32.52277 -2.3108,7.34662 -10.14002,17.47544 -20.52717,26.55641 -26.53392,23.19729 -30.55033,27.83762 -34.17511,39.48406 -3.91585,12.58165 -2.25642,17.47561 9.87131,29.11232 8.78438,8.42871 10.92782,11.51964 8.0538,11.61388 -0.6875,0.0225 -8.12687,1.08131 -16.53194,2.35282 -8.40507,1.27151 -15.47624,1.99747 -15.7137,1.61324 -0.23747,-0.38423 -2.00846,-13.4805 -3.93552,-29.10283 C 360.86157,315.8502 355.04059,268.53406 347.54193,207.5 345.04172,187.15 340.09106,146.875 336.54046,118 327.75855,46.581839 328.21845,52.211991 331.11727,51.609517 332.42777,51.337149 344.075,49.937067 357,48.498222 c 12.925,-1.438844 28.9,-3.264787 35.5,-4.05765 6.6,-0.792864 29.55,-3.479942 51,-5.971285 21.45,-2.491343 48.45,-5.628224 60,-6.970848 11.55,-1.342623 40.575,-4.713796 64.5,-7.491495 23.925,-2.777699 51.84375,-6.024714 62.04166,-7.215588 10.19792,-1.190875 19.22549,-1.902817 20.06128,-1.582094 1.1699,0.44893 1.80286,3.771466 2.75034,14.436936 0.67689,7.619591 2.10388,22.628802 3.17109,33.353802 1.06721,10.725 2.84398,28.95 3.94838,40.5 2.12143,22.18629 5.95272,61.95214 8.62299,89.5 0.87965,9.075 2.02812,16.95 2.55214,17.5 0.52402,0.55 2.82371,1 5.11044,1 h 4.15768 l 1.73194,16.5 c 7.47915,71.25315 13.88595,135.29944 13.56649,135.61891 -0.17648,0.17648 -13.57192,1.91067 -29.76765,3.85376 -16.19573,1.94309 -34.84678,4.20596 -41.44678,5.02859 -6.6,0.82264 -21.225,2.6024 -32.5,3.95502 -11.275,1.35262 -35.72844,4.31236 -54.34098,6.5772 -18.61254,2.26484 -34.01637,3.9425 -34.23074,3.72813 -0.21436,-0.21436 -1.30832,-6.64048 -2.43102,-14.28026 -1.12334,-7.64418 -2.5834,-14.22557 -3.24685,-14.63561 -1.43307,-0.88568 -9.77953,0.0625 -11.34916,1.28933 -0.60431,0.47232 -1.3688,5.24766 -1.69886,10.61185 -1.32357,21.5111 -8.65113,33.42383 -23.26427,37.82174 -6.27767,1.8893 -20.89574,1.80524 -25.39385,-0.14603 z M 550.5,372.48599 c 104.35318,-18.73754 130.02378,-23.5812 131.19765,-24.75507 1.00993,-1.00993 1.07678,-3.62393 0.31346,-12.25731 C 681.47747,329.43813 679.19793,302 676.94545,274.5 c -2.73838,-33.43219 -4.50647,-50.42406 -5.33592,-51.27978 -1.00523,-1.03704 -9.66818,0.24859 -45.67502,6.77848 -24.43898,4.43204 -46.82144,8.53242 -49.7388,9.11195 -4.23575,0.84142 -6.51362,2.13275 -11.3075,6.41025 -3.68739,3.2902 -8.00628,6.0506 -11.19571,7.15569 -6.97956,2.41832 -18.20928,2.18586 -26.6925,-0.55256 -7.2757,-2.34863 -11.87501,-2.59635 -20.56634,-1.10774 -3.26351,0.55896 -7.45827,1.26601 -9.32167,1.57121 l -3.38801,0.55491 0.57502,7.67879 c 0.31626,4.22334 1.73322,17.1288 3.14878,28.6788 1.41557,11.55 3.23639,26.625 4.04627,33.5 5.21267,44.2499 6.60748,54.41741 7.635,55.6555 0.63433,0.76431 1.87728,1.18367 2.76213,0.93191 0.88485,-0.25176 18.25882,-3.4474 38.60882,-7.10142 z m -32.02812,-12.86474 c -0.43092,-3.449 -0.25187,-6.16382 0.49906,-7.56695 3.52002,-6.57721 26.1418,-40.0543 27.06627,-40.0543 0.60034,0 7.10859,1.8 14.46279,4 7.3542,2.2 14.255,4 15.33511,4 1.49429,0 5.10405,-5.26014 15.09741,-22 7.22346,-12.1 13.5526,-22 14.06474,-22 0.51214,0 7.51815,4.33265 15.56891,9.6281 8.05076,5.29546 15.3461,9.68296 16.21187,9.75 1.10709,0.0857 4.76603,-6.55371 12.3324,-22.3781 5.91705,-12.375 10.9512,-22.95 11.18701,-23.5 0.95968,-2.23837 1.55863,0.59755 2.64003,12.5 0.62462,6.875 2.43223,26.45 4.01691,43.5 1.58467,17.05 2.58071,31.30933 2.21342,31.68739 -0.59434,0.61177 -23.34621,4.93621 -107.16781,20.36933 -13.475,2.481 -27.81063,5.17069 -31.85696,5.97709 -11.12307,2.21675 -10.89583,2.29292 -11.67116,-3.91256 z M 570.35155,204.929 c -6.1616,-3.23373 -9.88602,-6.22442 -11.51444,-9.24606 -2.69445,-4.9997 6.87206,-9.70084 23.85401,-11.72227 C 593.60759,182.66124 596,183.41292 596,188.14222 c 0,4.1206 -5.41464,15.25218 -8.66118,17.80591 -3.88897,3.05905 -9.90425,2.69818 -16.98727,-1.01913 z m -86.72287,-43.95844 c -4.79414,-5.69751 -4.82666,-16.06692 -0.066,-21.036 3.42626,-3.57625 7.82335,-5.67742 14.82265,-7.08308 7.06153,-1.41816 11.02734,-0.5376 10.28931,2.28462 -0.2954,1.12961 0.32761,3.4599 1.39149,5.20465 3.85432,6.32108 1.78348,17.65925 -3.22535,17.65925 -1.12518,0 -6.07527,1.35 -11.00019,3 -4.92492,1.65 -9.1138,3 -9.30861,3 -0.19482,0 -1.50131,-1.36325 -2.90332,-3.02944 z M 569.79711,142.25 c -4.74627,-5.06476 -6.99671,-10.83229 -6.06919,-15.55442 0.74248,-3.78008 1.14041,-4.22639 4.01815,-4.50671 8.13027,-0.79195 14.16117,5.78639 15.01101,16.3736 L 583.27382,145 H 577.824 c -4.65384,0 -5.82621,-0.40165 -8.02689,-2.75 z"
       style="fill:#8457ac"
       inkscape:connector-curvature="0"
       sodipodi:nodetypes="sssccsscsccsssccssscsscsccssssccccssscccssccsssscsscsssssscsssscssssscsscssscccscscccsssscscsssssssssscsssssscscscssssccssssscscscssssscssscssccsssssscsccscsccscsscsccsscsssccsscscss" />
    <path
       id="path5860"
       d="m 438.93879,407.69956 c -4.57487,-1.29839 -11.48265,-5.48903 -10.56337,-6.40832 0.26982,-0.26981 2.14596,0.0558 4.16922,0.72349 5.52276,1.82268 20.87278,0.84872 26.50617,-1.68181 9.41006,-4.22702 15.65279,-12.20355 18.65253,-23.83292 5.51552,-21.38253 -10.07139,-57.64257 -29.38777,-68.36519 -5.22492,-2.90038 -5.4601,-3.16183 -2.31557,-2.57431 13.68799,2.55746 29.81117,19.68543 35.06333,37.24849 1.6747,5.60013 3.19255,6.30485 10.48139,4.86633 5.5783,-1.10092 5.97386,-1.36522 6.24876,-4.17532 0.23174,-2.36877 -6.23768,-56.13317 -10.67752,-88.73609 l -0.78114,-5.7361 3.08259,-0.51424 C 492.75229,247.95725 508.9536,246 510.22377,246 510.65069,246 511,245.20696 511,244.23769 c 0,-1.04019 -3.44858,-4.36573 -8.4162,-8.11593 -4.62891,-3.49449 -9.91641,-7.96082 -11.75,-9.92517 l -3.3338,-3.57154 3,1.87844 C 510.50483,237.0294 528.27869,244 540.21284,244 c 10.7763,0 23.23372,-5.94689 33.4365,-15.96182 l 4.14934,-4.07294 -0.14934,3.23887 c -0.13481,2.92371 0.23092,3.36579 3.75867,4.54333 3.28829,1.09761 5.34368,1.05671 12.96151,-0.25791 4.97942,-0.85931 9.82706,-2.26244 10.77253,-3.11808 2.78961,-2.52457 6.68146,-13.547 7.9978,-22.65125 2.33113,-16.12293 -1.5085,-27.2329 -15.89172,-45.98263 l -5.95468,-7.76243 -0.68078,-9.6849 c -1.17508,-16.71693 -6.00944,-26.81142 -20.23622,-42.25467 -4.38222,-4.756931 -5.70858,-6.644325 -3.65669,-5.203441 1.77087,1.243546 3.48492,2.69004 3.80902,3.214432 C 570.85287,98.570952 571.93899,99 572.94239,99 c 3.08089,0 4.13828,-7.418702 1.60847,-11.285183 -2.18302,-3.336473 -4.27717,-12.39699 -4.91873,-21.281343 -0.47045,-6.514802 -0.38332,-7.3076 0.48722,-4.433474 5.00491,16.523981 9.06749,23.742432 19.05148,33.85096 9.86296,9.986 16.37389,12.39147 20.79686,7.68343 2.04371,-2.17542 2.25324,-3.16128 1.78036,-8.376369 -0.63798,-7.035715 -6.51982,-20.28145 -13.10225,-29.505904 -6.36108,-8.914255 -18.83805,-20.392964 -25.46347,-23.426181 -5.1859,-2.374186 -5.97428,-2.472927 -11.13175,-1.394208 -6.51752,1.36318 -9.35799,3.262233 -13.85227,9.261182 -12.0375,16.067606 -14.97836,17.852555 -29.46736,17.885128 L 508.9619,68 l 0.62746,-2.5 c 0.5241,-2.088205 0.27198,-2.5 -1.53061,-2.5 -1.18694,0 -3.48572,0.686556 -5.10841,1.52568 -2.79825,1.447033 -2.95034,1.421259 -2.95034,-0.5 0,-2.279647 -2.85494,-2.770744 -4.8,-0.82568 -0.93333,0.933333 -1.2,0.835337 -1.2,-0.440983 0,-0.902541 -0.43457,-1.90956 -0.9657,-2.237821 -1.3647,-0.843431 -8.44367,2.955509 -12.82936,6.884893 -3.48264,3.120295 -18.68664,10.193999 -24.21011,11.263824 -1.37785,0.266871 -5.20285,-0.520953 -8.5,-1.750721 -4.88821,-1.823195 -7.47987,-3.762745 -14.03966,-10.507019 -4.63439,-4.764729 -9.22707,-8.567802 -10.8336,-8.971016 -4.98715,-1.251697 -11.90151,0.318158 -23.73332,5.38848 -16.68151,7.148579 -18.16523,8.003171 -17.60623,10.140801 0.3195,1.221776 -0.30532,2.174778 -1.90318,2.902812 -2.44485,1.113948 -3.15866,3.526759 -1.37035,4.632 0.55468,0.342806 -1.13282,2.334151 -3.75,4.425212 -6.55065,5.233822 -9.5957,8.714899 -8.7791,10.036188 0.37891,0.613087 1.5784,0.832396 2.66553,0.487353 1.84784,-0.586479 1.80978,-0.298117 -0.58415,4.426079 -2.92194,5.766168 -3.20564,10.040698 -1.06845,16.098158 4.06387,11.51821 20.03634,29.1316 31.70554,34.96277 10.57286,5.28332 19.21819,3.72632 29.48398,-5.30999 9.64745,-8.49202 11.57047,-18.70124 7.35325,-39.03803 -1.12992,-5.44886 -1.87164,-10.089778 -1.64825,-10.313161 0.73254,-0.73254 6.58339,18.060911 8.11509,26.066411 1.878,9.81543 1.92326,20.70037 0.10418,25.05406 -1.67303,4.00411 -6.63192,7.97893 -12.67478,10.15953 -5.83532,2.10571 -17.34817,2.1285 -22.33655,0.0442 -3.10433,-1.29707 -4.16857,-1.37274 -5.36315,-0.38132 -2.16618,1.79777 -1.08743,20.85539 1.74214,30.77727 1.17638,4.125 2.54754,10.425 3.047,14 1.39427,9.97962 2.32094,12.45711 4.7949,12.81933 1.33029,0.19478 2.41899,1.26745 2.79109,2.75 0.71366,2.84346 3.12628,3.17467 4.95815,0.68067 1.14283,-1.55592 1.62176,-1.00141 4.31841,5 2.24813,5.00321 3.53986,6.75 4.99152,6.75 1.07717,0 2.17008,-0.5625 2.42869,-1.25 0.7877,-2.09406 5.54164,9.69709 6.78248,16.8225 1.68635,9.68371 0.75715,18.09441 -2.71173,24.54537 -3.32648,6.18613 -13.95685,17.19621 -30.54949,31.64069 -12.35104,10.75202 -16.80834,16.23379 -20.50448,25.21728 -2.69912,6.56023 -3.06705,16.30121 -0.81894,21.68168 0.84657,2.02612 5.53502,7.42567 10.75,12.38043 8.66634,8.23391 9.09123,8.82183 6.74863,9.33792 -5.62875,1.24004 -30.31154,4.64592 -30.71871,4.23875 -0.53203,-0.53203 -2.86188,-18.15843 -8.27638,-62.61462 -2.24406,-18.425 -6.29821,-51.5 -9.00923,-73.5 -2.71102,-22 -6.74641,-54.85 -8.96752,-73 -5.39072,-44.05068 -8.60415,-70.09745 -11.47356,-93 -1.30925,-10.45 -2.08214,-19.283378 -1.71753,-19.629728 0.36461,-0.346351 13.03793,-2.042466 28.16293,-3.769146 15.125,-1.72668 35.0375,-4.030803 44.25,-5.120272 37.35918,-4.418094 51.79211,-6.109376 85.25,-9.98978 19.25,-2.23259 44.5622,-5.171449 56.24933,-6.530796 11.68713,-1.359347 31.03713,-3.602979 43,-4.98585 43.83804,-5.06754 55.83688,-6.47209 59.83978,-7.004669 l 4.0891,-0.54405 1.15419,11.287146 c 0.63481,6.20793 2.29071,23.212145 3.67978,37.787145 5.53236,58.04886 7.5445,78.91178 8.48725,88 0.542,5.225 1.88953,19.4 2.99452,31.5 1.10498,12.1 2.26396,23.51681 2.57551,25.3707 l 0.56645,3.3707 4.93205,-0.47391 c 4.05338,-0.38948 4.9335,-0.18829 4.94024,1.1293 0.005,0.88177 0.44504,5.42821 0.97893,10.10321 0.5339,4.675 2.99976,28.525 5.4797,53 2.47993,24.475 5.44288,53.66377 6.58433,64.86394 1.14146,11.20017 1.86784,20.90477 1.61418,21.56578 -0.27965,0.72878 -4.92959,1.68953 -11.81326,2.44083 -6.24365,0.68144 -18.32708,2.11022 -26.85208,3.17508 -19.80486,2.47382 -38.45463,4.72449 -90.5,10.92164 -23.1,2.75056 -45.28088,5.45816 -49.29085,6.01688 C 512.19919,385.54287 507.69878,386 506.20826,386 h -2.71005 l -1.9991,-14.25 -1.99911,-14.25 -6.8384,0.084 c -4.73596,0.0582 -7.11396,0.51935 -7.73469,1.5 -0.49295,0.77879 -0.90983,4.79098 -0.92638,8.91598 -0.0785,19.55942 -7.52592,33.3881 -20.6428,38.33031 -6.27709,2.36509 -18.49596,3.05025 -24.41894,1.36925 z m 82.20425,-29.16237 c 4.04633,-0.80454 25.13196,-4.65194 46.85696,-8.54976 80.51298,-14.44536 111.54509,-20.08986 113.25,-20.5993 2.0845,-0.62286 2.24568,-5.08567 0.79052,-21.88813 -0.52396,-6.05 -1.88175,-22.25 -3.01733,-36 -5.45707,-66.07657 -5.72564,-68.69807 -7.12657,-69.56389 -0.759,-0.46909 -2.28374,-0.63867 -3.38831,-0.37684 C 665.21834,222.33912 572.86361,239 571.83067,239 c -0.52272,0 -3.28595,2.19361 -6.14053,4.8747 -8.37321,7.86431 -12.59007,9.61145 -23.19014,9.60819 -6.62459,-0.002 -11.02652,-0.62682 -16.67811,-2.36717 l -7.67811,-2.36438 -11.82189,1.6985 c -6.50204,0.93418 -12.23682,2.10256 -12.74396,2.59641 -0.88551,0.86229 -0.0521,9.13379 5.93962,58.95375 1.28988,10.725 3.51898,29.4 4.95356,41.5 1.43457,12.1 2.82402,23.0125 3.08766,24.25 0.5835,2.73897 3.04942,2.88187 13.58427,0.78719 z m -1.52462,-15.08918 C 519.27829,362.56164 519,359.8245 519,357.36548 c 0,-3.74882 0.91728,-5.87567 5.67926,-13.16821 3.12359,-4.7835 8.9708,-13.75977 12.9938,-19.94727 4.30202,-6.61663 7.9751,-11.25 8.91839,-11.25 0.88211,0 7.70064,1.8 15.15228,4 7.45164,2.2 14.1317,4 14.84458,4 0.71289,0 7.01605,-9.5625 14.00703,-21.25 6.99097,-11.6875 13.13124,-21.79343 13.64504,-22.45763 0.6846,-0.88499 4.93628,1.46898 15.91385,8.81078 9.26695,6.19773 15.75086,9.89989 17.00186,9.70763 1.5634,-0.24027 4.48156,-5.50315 12.8622,-23.19692 12.25841,-25.88078 11.13725,-25.48006 12.90878,-4.61386 0.53699,6.325 2.15124,24.28104 3.58722,39.90231 1.91567,20.83956 2.30925,28.58872 1.47811,29.10239 -0.62301,0.38504 -4.36367,1.26511 -8.31258,1.9557 -3.9489,0.6906 -21.57982,3.91583 -39.17982,7.16719 -17.6,3.25136 -39.425,7.28165 -48.5,8.9562 -34.31756,6.33239 -48.55177,9.02819 -50.13158,9.49436 -0.91939,0.2713 -1.90151,-0.222 -2.25,-1.13014 z m 55.48497,-157.08288 c -5.80461,-2.03237 -14.89261,-8.12567 -15.64233,-10.48782 -1.30348,-4.10689 0.40377,-5.7476 8.71152,-8.37201 5.72619,-1.80891 10.69386,-2.61073 17.19045,-2.7747 L 594.5,184.5 l 0.31019,3.74709 c 0.36238,4.37756 -4.61527,14.66783 -8.61834,17.81664 -2.9265,2.30199 -5.1983,2.36374 -11.08846,0.3014 z M 484.69313,161.2134 c -3.03622,-3.35498 -4.8661,-9.23011 -4.16582,-13.37503 1.37558,-8.14201 9.40869,-13.81043 20.72269,-14.62257 l 6.75,-0.48453 v 2.91186 c 0,1.60152 0.6175,3.79949 1.37223,4.88436 2.17999,3.13364 2.83855,7.97602 1.67326,12.30357 -0.9857,3.66062 -1.42725,4.05764 -5.22655,4.69953 -2.28244,0.38562 -7.30424,1.77398 -11.15957,3.08526 -8.38374,2.8515 -7.94999,2.82549 -9.96624,0.59755 z m 84.61285,-20.51769 c -4.3919,-5.0021 -5.73591,-9.00471 -4.6894,-13.96554 1.07329,-5.0878 2.64766,-5.59157 8.87121,-2.8386 5.45124,2.41135 8.45551,7.84592 8.49025,15.35843 L 582,144 h -4.89641 c -4.28865,0 -5.25651,-0.41014 -7.79761,-3.30429 z"
       style="fill:#7745a3"
       inkscape:connector-curvature="0"
       sodipodi:nodetypes="cccsssssccsccsscsccsscsssssscssscscsssccsssssccscssscssssssssccccscssscscsccccccccsssssssscssssscsssssscsscsscsccssccsscsccccccccccscssccsscccsccscccssssssscsssssscsscccscccscccsscscccccsscccss" />
  </g>
</svg>
