<svg xmlns="http://www.w3.org/2000/svg" xmlns:xlink="http://www.w3.org/1999/xlink" viewBox="0 0 91.89 91.89"><defs><style>.cls-1{fill:none;}.cls-2{clip-path:url(#clip-path);}.cls-3{fill:#f05133;}</style><clipPath id="clip-path"><rect class="cls-1" x="0.06" width="91.83" height="91.89"/></clipPath></defs><title>git</title><g id="Warstwa_2" data-name="Warstwa 2"><g id="Warstwa_1-2" data-name="Warstwa 1"><g class="cls-2"><path class="cls-3" d="M90.15,41.85,50,1.73a5.92,5.92,0,0,0-8.37,0l-8.33,8.34L43.9,20.63a7,7,0,0,1,8.9,9L63,39.78a7,7,0,1,1-4.22,4l-9.5-9.5v25a7.26,7.26,0,0,1,1.86,1.34,7,7,0,1,1-10,0A6.94,6.94,0,0,1,43.48,59V33.81a6.91,6.91,0,0,1-2.3-1.53,7,7,0,0,1-1.52-7.7L29.24,14.16,1.73,41.67a5.92,5.92,0,0,0,0,8.37L41.85,90.15a5.92,5.92,0,0,0,8.37,0L90.15,50.22a5.9,5.9,0,0,0,0-8.37"/></g></g></g></svg>