<svg xmlns="http://www.w3.org/2000/svg" viewBox="0 0 1223.58 1097.44"><defs><style>.cls-1{fill:#d6d6d6;}.cls-2{fill:#154f77;}.cls-3{fill:#0d3858;}.cls-4{fill:#fffefe;}.cls-20,.cls-21,.cls-4,.cls-41{fill-rule:evenodd;}.cls-22,.cls-41,.cls-5{opacity:0.1;}.cls-6{fill:#aec647;}.cls-7{fill:#f3ae1b;}.cls-8{fill:#df3f11;}.cls-9{fill:#bcdede;}.cls-10{fill:#c84119;}.cls-11{fill:#6bb5ce;}.cls-12{fill:#00d0e5;}.cls-13{fill:#ff81ed;}.cls-14{fill:#00c982;}.cls-15{opacity:0.7;}.cls-16,.cls-40{opacity:0.4;}.cls-17,.cls-20{fill:#0b2e44;}.cls-18,.cls-21,.cls-22,.cls-40,.cls-44{fill:#fff;}.cls-18{opacity:0.8;}.cls-19{fill:#424242;}.cls-21,.cls-33{opacity:0.2;}.cls-23{fill:#d0edfa;}.cls-24{fill:#ff651f;}.cls-25{fill:#0051c4;}.cls-26{fill:#e46400;}.cls-27{fill:#c0003b;}.cls-28{fill:#ffea50;}.cls-29{fill:#ff2c0d;}.cls-30{fill:#ff1a2c;}.cls-31{fill:#ff2c4d;}.cls-32{fill:#ffd74c;}.cls-34{fill:#4c4c4b;}.cls-35{fill:#6cd2ea;}.cls-36{fill:#f7674f;}.cls-37{fill:#fff064;}.cls-38{fill:#4f4e4f;}.cls-39{fill:#1e2f47;}.cls-42{fill:#bababa;}.cls-43{fill:#f9b946;}.cls-44{opacity:0.5;}</style></defs><title>Asset 2</title><g id="Layer_2" data-name="Layer 2"><g id="Web_and_Development" data-name="Web and Development"><g id="Application_Development" data-name="Application Development"><g id="Application_Development-2" data-name="Application Development"><g id="Line"><polygon class="cls-1" points="498.49 628.74 323.68 628.74 323.68 528.67 124.22 528.67 124.22 520.67 331.68 520.67 331.68 620.74 498.49 620.74 498.49 628.74"/><polygon class="cls-1" points="557.1 588.04 549.1 588.04 549.1 482.71 472.01 482.71 472.01 294.23 480.01 294.23 480.01 474.71 557.1 474.71 557.1 588.04"/><polygon class="cls-1" points="687.85 614.24 687.85 452.9 1065.71 452.9 1065.71 460.9 695.85 460.9 695.95 607.84 781.88 607.84 781.88 614.24 687.85 614.24"/><polygon class="cls-1" points="1000.91 799.04 828.14 799.04 828.14 739.88 765.23 693.42 687.85 693.42 687.85 611.04 695.85 611.04 695.85 685.42 767.86 685.42 836.14 735.84 836.14 791.04 1000.91 791.04 1000.91 799.04"/><rect class="cls-1" x="565.75" y="607.84" width="122.09" height="6.4"/></g><g id="Coding"><path class="cls-2" d="M336.08,0H797.71a23.08,23.08,0,0,1,23.08,23.08V308.71a23.08,23.08,0,0,1-23.08,23.08H336.07A23.08,23.08,0,0,1,313,308.72V23.09A23.09,23.09,0,0,1,336.08,0Z"/><rect class="cls-3" x="335.68" y="21.89" width="464.38" height="286.74"/><path class="cls-4" d="M213.69,330.12a44,44,0,0,0-.47,6.31c0,18.24,11.07,33,24.71,33H897.81c13.65,0,24.71-14.78,24.71-33a43.48,43.48,0,0,0-.46-6.31Z"/><path class="cls-5" d="M215.35,349.79c3.84,11.58,12.5,19.66,22.59,19.66H897.81c10.09,0,18.75-8.09,22.59-19.66Z"/><rect class="cls-6" x="359.74" y="48.74" width="116.27" height="5.78"/><rect class="cls-7" x="359.74" y="66.09" width="116.27" height="5.78"/><rect class="cls-8" x="359.74" y="82.15" width="116.27" height="5.78"/><rect class="cls-6" x="359.74" y="231.39" width="116.27" height="5.78"/><rect class="cls-6" x="359.74" y="212.34" width="116.27" height="5.78"/><rect class="cls-6" x="359.74" y="251.09" width="116.27" height="5.78"/><rect class="cls-7" x="498.5" y="118.76" width="116.27" height="5.78"/><rect class="cls-6" x="375.8" y="118.76" width="116.27" height="5.78"/><rect class="cls-7" x="375.8" y="134.82" width="116.27" height="5.78"/><rect class="cls-6" x="498.5" y="134.82" width="54.6" height="5.78"/><rect class="cls-6" x="375.8" y="165.9" width="116.27" height="5.78"/><rect class="cls-7" x="498.5" y="165.9" width="54.6" height="5.78"/><rect class="cls-7" x="637.25" y="150.24" width="54.6" height="5.78"/><rect class="cls-9" x="375.8" y="100.14" width="251.17" height="5.78"/><rect class="cls-9" x="375.8" y="150.24" width="251.17" height="5.78"/><rect class="cls-6" x="637.25" y="184.28" width="54.6" height="5.78"/><rect class="cls-6" x="375.8" y="184.28" width="251.17" height="5.78"/><rect class="cls-10" x="621.19" y="267.15" width="54.6" height="5.78"/><rect class="cls-11" x="359.74" y="267.15" width="251.17" height="5.78"/><circle class="cls-12" cx="361.33" cy="339.95" r="4.58"/><circle class="cls-13" cx="332.26" cy="339.95" r="4.58"/><circle class="cls-14" cx="346.55" cy="339.95" r="4.58"/><path class="cls-15" d="M320.94,339.95a4.17,4.17,0,0,1-4.18,4.17H281.11a4.18,4.18,0,0,1-4.17-4.17h0a4.17,4.17,0,0,1,4.17-4.17h35.65a4.17,4.17,0,0,1,4.18,4.17Z"/><circle class="cls-16" cx="567.87" cy="10.85" r="6.76"/></g><g id="Phone"><rect class="cls-17" y="476.26" width="219.78" height="382.4" rx="12.96" ry="12.96"/><rect class="cls-18" x="20.27" y="521.63" width="179.23" height="261.41"/><g id="Setting"><circle class="cls-19" cx="64.77" cy="650.82" r="30.12"/><path class="cls-7" d="M92.65,649A30.12,30.12,0,1,1,62.52,618.9,30.12,30.12,0,0,1,92.65,649Z"/><path class="cls-20" d="M64.74,629.1H60.67a.4.4,0,0,0-.39.4v2.11a16.21,16.21,0,0,0-7.07,2.82l-2-2a.39.39,0,0,0-.56,0l-2.88,2.88a.4.4,0,0,0,0,.56l1.9,1.89a17.94,17.94,0,0,0-3.07,5.83l-2.73-.49a.41.41,0,0,0-.46.32l-.7,4a.39.39,0,0,0,.32.46l2.77.49c0,.21,0,.42,0,.64a18.37,18.37,0,0,0,.61,4.73l-2.5,1.17a.4.4,0,0,0-.19.52l1.72,3.68a.4.4,0,0,0,.52.2l2.32-1.08a17.47,17.47,0,0,0,3.59,4.32l-1.16,2a.4.4,0,0,0,.14.54l3.53,2a.4.4,0,0,0,.54-.14l1-1.82a16,16,0,0,0,5.68,1.38l.17,2a.4.4,0,0,0,.43.36l4.05-.36a.39.39,0,0,0,.36-.43l-.18-2.06a16.35,16.35,0,0,0,5.23-2.39l1.5,1.79a.4.4,0,0,0,.56.05l3.12-2.62a.4.4,0,0,0,.05-.56l-1.67-2a17.66,17.66,0,0,0,2.72-4.7l2.79.75a.4.4,0,0,0,.48-.28l1.05-3.93a.39.39,0,0,0-.28-.48l-2.9-.77a19.08,19.08,0,0,0,.1-1.94,18.54,18.54,0,0,0-.3-3.33l2.84-1a.39.39,0,0,0,.23-.5l-1.39-3.83a.4.4,0,0,0-.51-.23l-2.68,1a17.65,17.65,0,0,0-3.09-4.47l1.5-2.15a.4.4,0,0,0-.1-.55l-3.34-2.34a.39.39,0,0,0-.55.1l-1.35,1.92a16.13,16.13,0,0,0-5.39-1.93V629.5a.4.4,0,0,0-.4-.4Zm-2.22,11.39A8.54,8.54,0,1,1,54,649a8.54,8.54,0,0,1,8.54-8.54Z"/><path class="cls-21" d="M62.52,637.2A11.83,11.83,0,1,1,50.7,649,11.83,11.83,0,0,1,62.52,637.2Zm0,3.29A8.54,8.54,0,1,1,54,649a8.54,8.54,0,0,1,8.54-8.54Z"/><path class="cls-22" d="M82,651.74l-2.9-.77a19.08,19.08,0,0,0,.1-1.94,18.54,18.54,0,0,0-.3-3.33l2.84-1a.39.39,0,0,0,.23-.5l-1.39-3.83a.4.4,0,0,0-.51-.23l-2.68,1a17.65,17.65,0,0,0-3.09-4.47l1.5-2.15a.4.4,0,0,0-.1-.55l-3.34-2.34a.39.39,0,0,0-.55.1l-1.35,1.92a16.13,16.13,0,0,0-5.39-1.93V629.5a.4.4,0,0,0-.4-.4H62.52v11.39a8.54,8.54,0,0,1,0,17.08v11.36l3.78-.33a.39.39,0,0,0,.36-.43l-.18-2.06a16.35,16.35,0,0,0,5.23-2.39l1.5,1.79a.4.4,0,0,0,.56.05l3.12-2.62a.4.4,0,0,0,.05-.56l-1.67-2a17.66,17.66,0,0,0,2.72-4.7l2.79.75a.4.4,0,0,0,.48-.28l1.05-3.93A.39.39,0,0,0,82,651.74Z"/></g><g id="Game"><circle class="cls-19" cx="128.6" cy="618.1" r="30.12"/><circle class="cls-23" cx="126.29" cy="616.02" r="30.12"/><g id="Rocket"><path class="cls-24" d="M138.78,603.13s-17.61-4.56-27.61,11.62l3.45,5,3.46,5C136.76,621.21,138.78,603.13,138.78,603.13Z"/><path class="cls-25" d="M114.88,620.14l-.08-.11-3.64-5.28s-.78,2.51-.36,3.88l1.94,2.82.08.11,1.7,2.46c1,.75,3.55.74,3.55.74Z"/><rect class="cls-26" x="110.89" y="618.53" width="1.83" height="6.34" transform="translate(-333.03 173.22) rotate(-34.57)"/><polygon class="cls-27" points="111.76 624.77 108.92 620.64 109.63 620.16 112.47 624.28 111.76 624.77"/><polygon class="cls-28" points="118.59 608.55 107.69 608.36 112.88 615.36 118.59 608.55"/><polygon class="cls-28" points="126.7 619.25 123 629.5 118.31 622.15 126.7 619.25"/><path class="cls-29" d="M137.2,608.93a25.36,25.36,0,0,0,1.58-5.79,25.35,25.35,0,0,0-6-.59Z"/><polygon class="cls-30" points="104.34 626.84 108.53 626.5 112.73 626.17 110.34 622.7 107.95 619.24 106.15 623.04 104.34 626.84"/><polygon class="cls-31" points="106.07 625.53 109.06 625.35 112.04 625.18 110.28 622.62 108.53 620.07 107.3 622.79 106.07 625.53"/><polygon class="cls-32" points="108.25 623.98 109.85 624.15 111.46 624.33 110.26 622.59 109.06 620.85 108.66 622.41 108.25 623.98"/><path class="cls-33" d="M137.2,608.93h0a26.58,26.58,0,0,0,1.54-5.54h0c0-.1,0-.18,0-.21h0a0,0,0,0,1,0,0h0l-.11,0-34.21,23.56-.08.18,4.19-.34,4.2-.33-.68-1-.28-.42.71-.49.38.55,1.51-1,.16.23c1,.75,3.55.74,3.55.74v0c.57-.11,1.13-.23,1.67-.37L123,629.5l2.64-7.31A25,25,0,0,0,137.2,608.93Z"/></g><path class="cls-34" d="M123.56,631.62a2.15,2.15,0,0,0-.51.06,4.63,4.63,0,0,0-4.26-3.85,4.27,4.27,0,0,0-3.62,2.23,3.84,3.84,0,0,0-1.69-.38,3.77,3.77,0,0,0-3.7,4.62h15.92a2.15,2.15,0,0,0,.06-.5A2.2,2.2,0,0,0,123.56,631.62Z"/><path class="cls-35" d="M122.51,631.62a2.22,2.22,0,0,0-.51.06,4.62,4.62,0,0,0-4.25-3.85,4.27,4.27,0,0,0-3.62,2.23,3.85,3.85,0,0,0-1.69-.38,3.78,3.78,0,0,0-3.8,3.76,4,4,0,0,0,.1.87h15.93a2.15,2.15,0,0,0,.06-.5A2.2,2.2,0,0,0,122.51,631.62Z"/><path class="cls-33" d="M122.51,631.62a2.22,2.22,0,0,0-.51.06,4.62,4.62,0,0,0-4.25-3.85h-.19v6.46h7.11a2.15,2.15,0,0,0,.06-.5A2.2,2.2,0,0,0,122.51,631.62Z"/><path class="cls-34" d="M129.47,596.52a3.33,3.33,0,0,0-.77.08c-.79-3.34-3.37-5.8-6.42-5.8a6.43,6.43,0,0,0-5.46,3.37,5.83,5.83,0,0,0-2.54-.59,5.68,5.68,0,0,0-5.59,7h24a3.25,3.25,0,0,0,.09-.76A3.31,3.31,0,0,0,129.47,596.52Z"/><path class="cls-35" d="M127.88,596.52a3.34,3.34,0,0,0-.77.08c-.79-3.34-3.36-5.8-6.42-5.8a6.43,6.43,0,0,0-5.46,3.37,5.83,5.83,0,0,0-2.55-.59,5.68,5.68,0,0,0-5.59,7h24a3.25,3.25,0,0,0,.09-.76A3.31,3.31,0,0,0,127.88,596.52Z"/><path class="cls-33" d="M127.88,596.52a3.34,3.34,0,0,0-.77.08c-.79-3.34-3.36-5.8-6.42-5.8h-.28v9.75h10.72a3.25,3.25,0,0,0,.09-.76A3.31,3.31,0,0,0,127.88,596.52Z"/><path class="cls-34" d="M152.14,620.47a3.12,3.12,0,0,0-.66.07c-.68-2.87-2.89-5-5.51-5a5.51,5.51,0,0,0-4.68,2.89,5,5,0,0,0-2.18-.5,4.87,4.87,0,0,0-4.79,6h20.62a2.83,2.83,0,0,0-2.79-3.48Z"/><path class="cls-35" d="M150.77,620.47a3.12,3.12,0,0,0-.66.07c-.67-2.87-2.89-5-5.51-5a5.5,5.5,0,0,0-4.68,2.89,5,5,0,0,0-2.18-.5,4.87,4.87,0,0,0-4.8,6h20.62a2.83,2.83,0,0,0-2.79-3.48Z"/><path class="cls-33" d="M150.77,620.47a3.12,3.12,0,0,0-.66.07c-.67-2.87-2.89-5-5.51-5h-.24V624h9.2a2.83,2.83,0,0,0-2.79-3.48Z"/></g><g id="Idea"><circle class="cls-19" cx="119.91" cy="690.27" r="30.12"/><circle class="cls-36" cx="117.35" cy="688.53" r="30.12"/><g id="Lamp"><path class="cls-37" d="M117.42,681.62c-1,0-9.69,0-9.7,9.8,0,3.84,5.31,11.8,5.31,11.8h8.78s5.32-8,5.31-11.8C127.11,681.66,118.4,681.59,117.42,681.62Z"/><path class="cls-38" d="M118.64,703.49a28.15,28.15,0,0,1-.43-5.19,7.38,7.38,0,0,1,.24-2.21,2,2,0,0,1-.73,0,.72.72,0,0,1-.42-.21,1.86,1.86,0,0,1-.85.31l.1.14c.69,1.07.25,6.89.23,7.14l-.28,0c.13-1.65.34-6.14-.19-7l-.19-.27h-.2c-.57,0-.6-.19-.61-.24a.34.34,0,0,1,.21-.37c.15-.06.39,0,.71.33a2.15,2.15,0,0,0,.59-.12,1.33,1.33,0,0,0,.34-.19h0a.81.81,0,0,1,.25-.73.17.17,0,0,1,.21,0c.09.07.1.2,0,.46a.92.92,0,0,1-.17.34.48.48,0,0,0,.27.14,1.87,1.87,0,0,0,.82,0,1,1,0,0,1,.33-.38.56.56,0,0,1,.54,0l.16.09-.13.13a1.92,1.92,0,0,1-.71.42,5.88,5.88,0,0,0-.29,2.29,27.58,27.58,0,0,0,.42,5.13Zm-3-7.6a1.2,1.2,0,0,0,.24,0c-.1-.07-.17-.08-.21-.07Z"/><path class="cls-39" d="M113,703.22v4.63a1.08,1.08,0,0,0,1,1.1h6.69a1.08,1.08,0,0,0,1-1.1v-4.63Z"/><path class="cls-22" d="M121.81,703.93a.31.31,0,0,1-.33.29h-8.12a.31.31,0,0,1-.33-.29h0a.32.32,0,0,1,.33-.3h8.12a.32.32,0,0,1,.33.3Z"/><path class="cls-22" d="M121.81,705.12a.31.31,0,0,1-.33.29h-8.12a.31.31,0,0,1-.33-.29h0a.32.32,0,0,1,.33-.3h8.12a.31.31,0,0,1,.33.3Z"/><path class="cls-22" d="M121.81,706.31a.31.31,0,0,1-.33.3h-8.12a.32.32,0,0,1-.33-.3h0a.32.32,0,0,1,.33-.3h8.12a.32.32,0,0,1,.33.3Z"/><path class="cls-22" d="M121.81,707.5a.32.32,0,0,1-.33.3h-8.12a.32.32,0,0,1-.33-.3h0a.31.31,0,0,1,.33-.29h8.12a.31.31,0,0,1,.33.29Z"/><path class="cls-5" d="M121.81,704.52a.31.31,0,0,1-.33.3h-8.12a.32.32,0,0,1-.33-.3h0a.32.32,0,0,1,.33-.3h8.12a.32.32,0,0,1,.33.3Z"/><path class="cls-5" d="M121.81,705.72a.31.31,0,0,1-.33.29h-8.12a.31.31,0,0,1-.33-.29h0a.32.32,0,0,1,.33-.3h8.12a.32.32,0,0,1,.33.3Z"/><path class="cls-5" d="M121.81,706.91a.32.32,0,0,1-.33.3h-8.12a.32.32,0,0,1-.33-.3h0a.32.32,0,0,1,.33-.3h8.12a.32.32,0,0,1,.33.3Z"/><path class="cls-5" d="M121.81,708.09a.31.31,0,0,1-.33.3h-8.12a.32.32,0,0,1-.33-.3h0a.32.32,0,0,1,.33-.29h8.12a.31.31,0,0,1,.33.29Z"/><path class="cls-5" d="M120.15,681.95c1.39,3.11,4.65,12.27-.24,21.29h1.89s5.32-8,5.31-11.8C127.11,684.76,123,682.62,120.15,681.95Z"/><ellipse class="cls-40" cx="111.36" cy="690.1" rx="1.51" ry="0.99" transform="translate(-222.88 76.16) rotate(-19.4)"/><ellipse class="cls-40" cx="113.33" cy="686.22" rx="2.91" ry="1.92" transform="translate(-221.24 76.46) rotate(-19.38)"/><polygon class="cls-37" points="102.53 673.29 102.83 673.03 111.02 681.35 110.71 681.62 102.53 673.29"/><polygon class="cls-37" points="93.67 685.04 93.72 684.65 105.5 686.16 105.45 686.56 93.67 685.04"/><polygon class="cls-37" points="94.14 696.18 94.05 695.79 105.7 693.52 105.78 693.91 94.14 696.18"/><polygon class="cls-37" points="131.36 673.29 131.06 673.03 122.88 681.35 123.18 681.62 131.36 673.29"/><polygon class="cls-37" points="141.04 685.66 140.98 685.27 129.21 686.78 129.26 687.17 141.04 685.66"/><polygon class="cls-37" points="140.24 695.25 140.32 694.86 128.68 692.59 128.6 692.98 140.24 695.25"/><polygon class="cls-37" points="117.69 679.39 117.28 679.4 117.05 668.11 117.47 668.1 117.69 679.39"/></g></g><polygon class="cls-41" points="199.5 521.63 196.18 521.63 20.27 772.49 20.27 783.04 199.5 783.04 199.5 521.63"/></g><g id="Button"><circle class="cls-17" cx="537.71" cy="631.23" r="87.05"/><circle class="cls-42" cx="537.71" cy="631.23" r="64.65"/><circle class="cls-17" cx="537.71" cy="631.23" r="43.19"/></g><g id="Push"><path class="cls-43" d="M443.67,841.78l.86,128.33s55.55,56.27,72.35,86,47.8,41.34,49.1,41.34H749.43s45.21-12.92,46.51-74.94V811.93s-27.57-52.83-54.26,0h-16.8v-32.3s-32.29-50.38-60.72,0v29.71h-16.8V757.23s-32.3-56-59.43,0v52.11H569.85V651.72s-28.43-60.72-56.85,0V961.93s-8-7.75-13.13-25.83l-5-60.87S479.84,813,443.67,841.78Z"/><path class="cls-5" d="M532.38,626.88c-6.23,3.3-12.8,10.79-19.38,24.84V965.66l19.38-.72Z"/><path class="cls-5" d="M594.07,746.59a80.68,80.68,0,0,0-6.13,10.64v52.11H569.85V651.72a75.15,75.15,0,0,0-4.1-7.29V817.24h28.31Z"/><path class="cls-5" d="M668.13,773.31c-1.33,1.92-2.66,4-4,6.32v29.71h-16.8V757.23a75.2,75.2,0,0,0-6.11-8.66V813h26.88Z"/><path class="cls-5" d="M741.68,811.93h-16.8v-32.3a66.31,66.31,0,0,0-5.22-6.78v44.39h27.62V802.4A81.46,81.46,0,0,0,741.68,811.93Z"/><path class="cls-40" d="M455.3,863.75c-1.29-16.15-11.59-18.08-11.6-18.09l.21,31.65H455.3Z"/><path class="cls-44" d="M541.14,636.22c-9.5,0-17.2,9.17-17.2,20.5h34.4C558.34,645.4,550.64,636.22,541.14,636.22Z"/></g><g id="Setting-2" data-name="Setting"><path class="cls-19" d="M996.35,617.44A107.24,107.24,0,1,1,889.11,510.2,107.24,107.24,0,0,1,996.35,617.44Z"/><path class="cls-7" d="M988.36,611A107.24,107.24,0,1,1,881.12,503.8,107.24,107.24,0,0,1,988.36,611Z"/><path class="cls-20" d="M889,540.11H874.53a1.4,1.4,0,0,0-1.41,1.41V549a57.6,57.6,0,0,0-25.16,10L840.88,552a1.43,1.43,0,0,0-2,0l-10.25,10.25a1.42,1.42,0,0,0,0,2l6.75,6.75a63.82,63.82,0,0,0-10.91,20.75L814.76,590a1.43,1.43,0,0,0-1.63,1.14l-2.5,14.28a1.4,1.4,0,0,0,1.12,1.63l9.88,1.73c0,.76,0,1.5,0,2.27a65.91,65.91,0,0,0,2.17,16.83L814.86,632a1.41,1.41,0,0,0-.68,1.86L820.31,647a1.42,1.42,0,0,0,1.87.68l8.25-3.85a61.82,61.82,0,0,0,12.77,15.38l-4.13,7.16a1.39,1.39,0,0,0,.51,1.91l12.55,7.25a1.42,1.42,0,0,0,1.93-.51l3.72-6.46a56.91,56.91,0,0,0,20.2,4.92l.63,7.17a1.41,1.41,0,0,0,1.52,1.27l14.44-1.26a1.41,1.41,0,0,0,1.27-1.52l-.64-7.34a58.12,58.12,0,0,0,18.63-8.52l5.35,6.39a1.42,1.42,0,0,0,2,.18l11.11-9.32a1.39,1.39,0,0,0,.17-2l-5.92-7.08a63.44,63.44,0,0,0,9.7-16.73l9.92,2.65a1.39,1.39,0,0,0,1.71-1l3.75-14a1.4,1.4,0,0,0-1-1.72l-10.31-2.76a67.34,67.34,0,0,0-.7-18.74l10.1-3.67a1.42,1.42,0,0,0,.83-1.8l-5-13.61a1.41,1.41,0,0,0-1.8-.85l-9.53,3.47a62.77,62.77,0,0,0-11-15.92l5.35-7.64a1.42,1.42,0,0,0-.35-2l-11.88-8.31a1.38,1.38,0,0,0-1.94.35l-4.8,6.84a57.2,57.2,0,0,0-19.18-6.86v-7.72a1.42,1.42,0,0,0-1.41-1.41Zm-7.9,40.54a30.39,30.39,0,1,1-30.4,30.4,30.39,30.39,0,0,1,30.4-30.4Z"/><path class="cls-21" d="M881.11,568.93A42.11,42.11,0,1,1,839,611a42.1,42.1,0,0,1,42.1-42.12Zm0,11.72a30.39,30.39,0,1,1-30.4,30.4,30.39,30.39,0,0,1,30.4-30.4Z"/><path class="cls-22" d="M950.6,620.71l-10.31-2.76a67.34,67.34,0,0,0-.7-18.74l10.1-3.67a1.42,1.42,0,0,0,.83-1.8l-5-13.61a1.41,1.41,0,0,0-1.8-.85l-9.53,3.47a62.77,62.77,0,0,0-11-15.92l5.35-7.64a1.42,1.42,0,0,0-.35-2l-11.88-8.31a1.38,1.38,0,0,0-1.94.35l-4.8,6.84a57.2,57.2,0,0,0-19.18-6.86v-7.72a1.42,1.42,0,0,0-1.41-1.41h-7.89v40.54a30.39,30.39,0,0,1,0,60.79v40.44l13.45-1.17a1.41,1.41,0,0,0,1.27-1.52l-.64-7.34a58.12,58.12,0,0,0,18.63-8.52l5.35,6.39a1.42,1.42,0,0,0,2,.18l11.11-9.32a1.39,1.39,0,0,0,.17-2l-5.92-7.08a63.44,63.44,0,0,0,9.7-16.73l9.92,2.65a1.39,1.39,0,0,0,1.71-1l3.75-14A1.4,1.4,0,0,0,950.6,620.71Z"/></g><g id="Game-2" data-name="Game"><path class="cls-19" d="M1223.58,500.93a107.24,107.24,0,1,1-107.24-107.24A107.24,107.24,0,0,1,1223.58,500.93Z"/><circle class="cls-23" cx="1108.14" cy="493.53" r="107.24"/><g id="Rocket-2" data-name="Rocket"><path class="cls-24" d="M1152.59,447.65s-62.7-16.25-98.29,41.37l12.3,17.86,12.3,17.86C1145.41,512,1152.59,447.65,1152.59,447.65Z"/><path class="cls-25" d="M1067.52,508.22l-.27-.4-13-18.81s-2.8,8.94-1.29,13.83l6.91,10,.27.4,6,8.76c3.69,2.66,12.64,2.65,12.64,2.65Z"/><polygon class="cls-26" points="1060.26 524.89 1047.47 506.31 1052.85 502.61 1065.63 521.19 1060.26 524.89"/><polygon class="cls-27" points="1056.4 524.67 1046.3 510.01 1048.82 508.27 1058.92 522.94 1056.4 524.67"/><polygon class="cls-28" points="1080.7 466.96 1041.92 466.26 1060.4 491.17 1080.7 466.96"/><polygon class="cls-28" points="1109.58 505.05 1096.4 541.53 1079.72 515.38 1109.58 505.05"/><path class="cls-29" d="M1147,468.27a90,90,0,0,0,5.61-20.62,89.93,89.93,0,0,0-21.26-2.1Z"/><polygon class="cls-30" points="1029.98 532.06 1044.92 530.87 1059.85 529.68 1051.35 517.34 1042.85 504.99 1036.42 518.53 1029.98 532.06"/><polygon class="cls-31" points="1036.14 527.38 1046.78 526.76 1057.42 526.15 1051.15 517.04 1044.88 507.94 1040.51 517.66 1036.14 527.38"/><polygon class="cls-32" points="1043.9 521.86 1049.62 522.49 1055.34 523.13 1051.07 516.93 1046.79 510.72 1045.35 516.29 1043.9 521.86"/><path class="cls-33" d="M1147,468.27h0a94.22,94.22,0,0,0,5.48-19.7.12.12,0,0,1,0,0c.05-.36.08-.61.1-.75v-.12h-.12l-.38-.09-121.8,83.89-.31.64,14.94-1.19,14.94-1.18-2.44-3.53-1-1.48,2.51-1.73,1.35,2,5.37-3.7.59.84c3.69,2.66,12.64,2.65,12.64,2.65l0,.05q3.06-.59,6-1.31l11.56,18.11,9.4-26C1129.19,503.19,1141.06,483.33,1147,468.27Z"/></g><path class="cls-34" d="M1098.42,549.08a8,8,0,0,0-1.82.21c-1.86-7.9-7.94-13.69-15.16-13.69-5.32,0-10,3.14-12.86,8a13.64,13.64,0,0,0-6-1.39A13.46,13.46,0,0,0,1049,555.58a13.16,13.16,0,0,0,.35,3.06h56.69a8,8,0,0,0,.21-1.78A7.83,7.83,0,0,0,1098.42,549.08Z"/><path class="cls-35" d="M1094.65,549.08a7.88,7.88,0,0,0-1.82.21c-1.86-7.9-7.94-13.69-15.16-13.69-5.33,0-10,3.14-12.86,8a13.65,13.65,0,0,0-6-1.39,13.47,13.47,0,0,0-13.54,13.39,13.16,13.16,0,0,0,.36,3.06h56.69a8,8,0,0,0,.2-1.78A7.82,7.82,0,0,0,1094.65,549.08Z"/><path class="cls-33" d="M1094.65,549.08a7.88,7.88,0,0,0-1.82.21c-1.86-7.9-7.94-13.69-15.16-13.69l-.66,0v23h25.3a8,8,0,0,0,.2-1.78A7.82,7.82,0,0,0,1094.65,549.08Z"/><path class="cls-34" d="M1119.46,424.09a12.18,12.18,0,0,0-2.74.31c-2.81-11.91-12-20.64-22.87-20.64-8,0-15.12,4.75-19.42,12a20.54,20.54,0,0,0-9.06-2.08,20.32,20.32,0,0,0-20.44,20.2,20.05,20.05,0,0,0,.54,4.62H1131a11.73,11.73,0,0,0-11.56-14.42Z"/><path class="cls-35" d="M1113.77,424.09a12.27,12.27,0,0,0-2.75.31c-2.79-11.91-12-20.64-22.87-20.64-8,0-15.12,4.75-19.41,12a20.57,20.57,0,0,0-9.06-2.08,20.32,20.32,0,0,0-20.43,20.2,20,20,0,0,0,.53,4.62h85.55a11.47,11.47,0,0,0,.31-2.68A11.81,11.81,0,0,0,1113.77,424.09Z"/><path class="cls-33" d="M1113.77,424.09a12.27,12.27,0,0,0-2.75.31c-2.79-11.91-12-20.64-22.87-20.64-.34,0-.66,0-1,0v34.72h38.18a11.47,11.47,0,0,0,.31-2.68A11.81,11.81,0,0,0,1113.77,424.09Z"/><path class="cls-34" d="M1200.16,509.38a10.34,10.34,0,0,0-2.35.27c-2.41-10.22-10.29-17.71-19.63-17.71-6.89,0-13,4.08-16.67,10.31a17.58,17.58,0,0,0-25.31,15.55,17.32,17.32,0,0,0,.47,4h73.42a10,10,0,0,0,.27-2.3A10.13,10.13,0,0,0,1200.16,509.38Z"/><path class="cls-35" d="M1195.28,509.38a10.39,10.39,0,0,0-2.36.27c-2.4-10.22-10.27-17.71-19.62-17.71-6.89,0-13,4.08-16.67,10.31a17.66,17.66,0,0,0-7.77-1.79,17.44,17.44,0,0,0-17.54,17.34,17,17,0,0,0,.46,4h73.42a10,10,0,0,0,.27-2.3A10.13,10.13,0,0,0,1195.28,509.38Z"/><path class="cls-33" d="M1195.28,509.38a10.39,10.39,0,0,0-2.36.27c-2.4-10.22-10.27-17.71-19.62-17.71l-.87,0v29.8h32.77a10,10,0,0,0,.27-2.3A10.13,10.13,0,0,0,1195.28,509.38Z"/></g><g id="Idea-2" data-name="Idea"><path class="cls-19" d="M1192.67,757.86a107.24,107.24,0,1,1-107.24-107.24A107.23,107.23,0,0,1,1192.67,757.86Z"/><path class="cls-36" d="M1183.55,751.67a107.24,107.24,0,1,1-107.24-107.23A107.24,107.24,0,0,1,1183.55,751.67Z"/><g id="Lamp-2" data-name="Lamp"><path class="cls-37" d="M1076.55,727.08c-3.5-.08-34.49.12-34.54,34.87,0,13.68,18.89,42,18.89,42h31.28s18.92-28.34,18.9-42C1111,727.21,1080,727,1076.55,727.08Z"/><path class="cls-38" d="M1080.91,804.92c0-.06-1.43-6.48-1.53-18.45a25.37,25.37,0,0,1,.85-7.86,7.79,7.79,0,0,1-2.63,0,2.51,2.51,0,0,1-1.48-.76,6.59,6.59,0,0,1-3,1.13c.12.16.23.33.35.51,2.45,3.79.91,24.51.83,25.39l-1-.07c.46-5.91,1.21-21.87-.68-24.79-.24-.37-.47-.69-.68-1h-.7c-2-.09-2.14-.66-2.16-.85a1.23,1.23,0,0,1,.77-1.3c.55-.21,1.38-.12,2.53,1.16a7.75,7.75,0,0,0,2.09-.43,3.93,3.93,0,0,0,1.2-.68.15.15,0,0,0,0,0,2.88,2.88,0,0,1,.89-2.59.64.64,0,0,1,.74,0c.33.25.38.73.14,1.65a3.22,3.22,0,0,1-.59,1.2,1.55,1.55,0,0,0,1,.48,6.48,6.48,0,0,0,2.92-.12,3.27,3.27,0,0,1,1.18-1.34,2,2,0,0,1,1.91-.11l.57.31-.46.46a7,7,0,0,1-2.52,1.48c-.57,1.28-1.07,3.69-1,8.16.11,11.86,1.49,18.18,1.51,18.25Zm-10.83-27a3.82,3.82,0,0,0,.86.15c-.35-.25-.6-.29-.74-.25A.25.25,0,0,0,1070.07,777.89Z"/><path class="cls-39" d="M1060.91,804v16.51a3.82,3.82,0,0,0,3.73,3.91h23.82a3.82,3.82,0,0,0,3.72-3.91V804Z"/><path class="cls-22" d="M1092.18,806.5a1.12,1.12,0,0,1-1.18,1.06H1062.1a1.13,1.13,0,0,1-1.19-1.06h0a1.13,1.13,0,0,1,1.19-1.05H1091a1.12,1.12,0,0,1,1.18,1.05Z"/><path class="cls-22" d="M1092.18,810.74a1.13,1.13,0,0,1-1.18,1.06H1062.1a1.14,1.14,0,0,1-1.19-1.06h0a1.13,1.13,0,0,1,1.19-1.06H1091a1.12,1.12,0,0,1,1.18,1.06Z"/><path class="cls-22" d="M1092.18,815A1.12,1.12,0,0,1,1091,816H1062.1a1.13,1.13,0,0,1-1.19-1.06h0a1.14,1.14,0,0,1,1.19-1.06H1091a1.13,1.13,0,0,1,1.18,1.06Z"/><path class="cls-22" d="M1092.18,819.21a1.12,1.12,0,0,1-1.18,1.05H1062.1a1.13,1.13,0,0,1-1.19-1.05h0a1.13,1.13,0,0,1,1.19-1.06H1091a1.12,1.12,0,0,1,1.18,1.06Z"/><path class="cls-5" d="M1092.18,808.62a1.12,1.12,0,0,1-1.18,1.06H1062.1a1.13,1.13,0,0,1-1.19-1.06h0a1.13,1.13,0,0,1,1.19-1.05H1091a1.12,1.12,0,0,1,1.18,1.05Z"/><path class="cls-5" d="M1092.18,812.86a1.12,1.12,0,0,1-1.18,1.05H1062.1a1.13,1.13,0,0,1-1.19-1.05h0a1.13,1.13,0,0,1,1.19-1.05H1091a1.12,1.12,0,0,1,1.18,1.05Z"/><path class="cls-5" d="M1092.18,817.09a1.12,1.12,0,0,1-1.18,1.06H1062.1a1.13,1.13,0,0,1-1.19-1.06h0a1.13,1.13,0,0,1,1.19-1.05H1091a1.12,1.12,0,0,1,1.18,1.05Z"/><path class="cls-5" d="M1092.18,821.33a1.12,1.12,0,0,1-1.18,1.06H1062.1a1.13,1.13,0,0,1-1.19-1.06h0a1.13,1.13,0,0,1,1.19-1.06H1091a1.12,1.12,0,0,1,1.18,1.06Z"/><path class="cls-5" d="M1086.28,728.24c4.94,11.05,16.54,43.67-.85,75.81h6.76s18.92-28.35,18.9-42C1111.05,738.26,1096.57,730.65,1086.28,728.24Z"/><ellipse class="cls-40" cx="1054.99" cy="757.27" rx="5.38" ry="3.54" transform="translate(-191.42 392.68) rotate(-19.37)"/><ellipse class="cls-40" cx="1061.99" cy="743.45" rx="10.38" ry="6.84" transform="translate(-186.52 394.51) rotate(-19.38)"/><polygon class="cls-37" points="1023.54 697.43 1024.62 696.47 1053.76 726.11 1052.68 727.08 1023.54 697.43"/><polygon class="cls-37" points="992 739.26 992.2 737.86 1034.13 743.24 1033.93 744.64 992 739.26"/><polygon class="cls-37" points="993.65 778.91 993.36 777.52 1034.82 769.45 1035.11 770.84 993.65 778.91"/><polygon class="cls-37" points="1126.19 697.43 1125.11 696.47 1095.97 726.11 1097.05 727.08 1126.19 697.43"/><polygon class="cls-37" points="1160.63 741.47 1160.44 740.06 1118.5 745.44 1118.7 746.84 1160.63 741.47"/><polygon class="cls-37" points="1157.8 775.59 1158.1 774.2 1116.64 766.14 1116.34 767.52 1157.8 775.59"/><polygon class="cls-37" points="1077.54 719.16 1076.05 719.18 1075.24 678.97 1076.74 678.94 1077.54 719.16"/></g></g></g></g></g></g></svg>