<svg xmlns="http://www.w3.org/2000/svg" viewBox="0 0 1332.73 751.23"><defs><style>.cls-1,.cls-4{fill:#153151;}.cls-1,.cls-10,.cls-12,.cls-13,.cls-14,.cls-15,.cls-18,.cls-19,.cls-20,.cls-3{fill-rule:evenodd;}.cls-2{fill:#e5e5e5;}.cls-3{fill:#a3a3a3;}.cls-10,.cls-5{fill:#f39c12;}.cls-6{fill:#f1c40f;}.cls-7{fill:#34495e;}.cls-8{fill:#f46464;}.cls-9{fill:#14af95;}.cls-11{fill:#e6e6e6;}.cls-12{fill:#474646;}.cls-13{fill:#d84848;}.cls-14,.cls-15{fill:#231f20;}.cls-14,.cls-25,.cls-30{opacity:0.2;}.cls-15,.cls-27{opacity:0.1;}.cls-16{fill:#4d4d4d;}.cls-17{fill:#369;}.cls-18,.cls-21{fill:#f63;}.cls-19,.cls-23{fill:#0056a3;}.cls-20,.cls-22{fill:#3c9;}.cls-24{fill:#ce6405;}.cls-25{fill:#fff;}.cls-26{fill:#d3d3d3;}.cls-28{fill:#1c3b59;}.cls-29{fill:#1abc9c;}</style></defs><title>Asset 3</title><g id="Layer_2" data-name="Layer 2"><g id="Web_and_Development" data-name="Web and Development"><g id="Concept_Web" data-name="Concept Web"><g id="Concept"><g id="Coding"><path class="cls-1" d="M1084.74,493.11A36.86,36.86,0,0,1,1047.87,530H310.51a36.87,36.87,0,0,1-36.87-36.86V36.87A36.87,36.87,0,0,1,310.51,0h737.36a36.86,36.86,0,0,1,36.87,36.87Z"/><rect class="cls-2" x="309.88" y="34.96" width="741.75" height="458.01"/><path class="cls-3" d="M115,527.29a70,70,0,0,0-.74,10.08c0,29.13,17.67,52.75,39.46,52.75h1054c21.8,0,39.47-23.61,39.47-52.75a70,70,0,0,0-.74-10.08Z"/><path class="cls-4" d="M117.68,558.7c6.13,18.5,20,31.41,36.07,31.41h1054c16.11,0,29.95-12.92,36.08-31.41Z"/></g><g id="Text"><rect class="cls-5" x="360.23" y="72.56" width="262.27" height="12.66"/><rect class="cls-5" x="360.23" y="90.65" width="262.27" height="12.66"/><rect class="cls-5" x="360.23" y="109.65" width="262.27" height="12.66"/><rect class="cls-5" x="360.23" y="128.63" width="262.27" height="12.66"/></g><g id="Point"><polygon class="cls-6" points="632.75 365.64 630.7 356.88 748.72 332.08 750.76 340.85 632.75 365.64"/><polygon class="cls-6" points="669.84 239.98 676.11 233.84 761.8 322.91 755.52 329.06 669.84 239.98"/><polygon class="cls-6" points="661.31 247.18 669.15 251.61 612.22 357.97 604.38 353.54 661.31 247.18"/><ellipse class="cls-7" cx="604.47" cy="363.49" rx="31.7" ry="32.68" transform="translate(-97.79 429.42) rotate(-36.38)"/><ellipse class="cls-8" cx="673.03" cy="238.66" rx="26.34" ry="27.14" transform="translate(-10.38 445.73) rotate(-36.38)"/><path class="cls-9" d="M805.75,307c13.51,18.33,10,43.8-7.75,56.91s-43.14,8.87-56.64-9.46-10-43.8,7.75-56.91S792.25,288.64,805.75,307Z"/><polygon class="cls-6" points="891.48 315.47 893.07 312.97 927.59 335.83 926 338.34 891.48 315.47"/><polygon class="cls-6" points="930.44 329.15 927.48 329.55 920.97 288.79 923.91 288.38 930.44 329.15"/><polygon class="cls-6" points="889.21 312.34 887.27 310.01 918.11 284.04 920.07 286.37 889.21 312.34"/><path class="cls-7" d="M923.43,329.38a10.88,10.88,0,0,1,14.9,3.61,10.66,10.66,0,1,1-14.9-3.61Z"/><path class="cls-8" d="M883.94,303.51a9,9,0,0,1,12.38,3,8.94,8.94,0,0,1-2.62,12.41,9.13,9.13,0,0,1-9.77-15.41Z"/><path class="cls-9" d="M913.46,268.63a13.72,13.72,0,0,1,18.8,4.56,13.58,13.58,0,0,1-4,18.84,13.73,13.73,0,0,1-18.8-4.55A13.59,13.59,0,0,1,913.46,268.63Z"/><polygon class="cls-6" points="829.24 179.73 823.98 180.43 812.35 107.63 817.6 106.93 829.24 179.73"/><polygon class="cls-6" points="755.65 149.7 752.17 145.53 807.25 99.17 810.72 103.34 755.65 149.7"/><polygon class="cls-6" points="759.7 155.29 762.52 150.82 824.15 191.66 821.32 196.13 759.7 155.29"/><path class="cls-7" d="M816.73,180.12c8.91-5.59,20.81-2.7,26.61,6.45s3.28,21.09-5.62,26.67-20.81,2.71-26.6-6.44S807.83,185.7,816.73,180.12Z"/><path class="cls-8" d="M746.23,133.93a16.29,16.29,0,1,1-4.67,22.16A16.13,16.13,0,0,1,746.23,133.93Z"/><path class="cls-9" d="M798.93,71.65c11.23-7,26.26-3.41,33.56,8.13s4.13,26.59-7.08,33.64-26.26,3.41-33.57-8.12S787.7,78.7,798.93,71.65Z"/></g><g id="Concept-2" data-name="Concept"><g id="Board"><path class="cls-10" d="M1026.49,254.48h286.59c10.82,0,19.65,9.54,19.65,21.22V649.94c0,11.68-8.83,21.26-19.65,21.26H1026.49c-10.78,0-19.66-9.58-19.66-21.26V275.7c0-11.68,8.87-21.22,19.66-21.22Z"/><rect class="cls-11" x="1022.68" y="272.99" width="294.25" height="379.67"/><polygon class="cls-12" points="1108.7 212.79 1230.91 212.79 1230.91 272.99 1224.1 272.99 1224.1 220.48 1115.1 220.48 1115.1 272.99 1108.7 272.99 1108.7 212.79"/><path class="cls-13" d="M1099,248.66h141.54a5.61,5.61,0,0,1,5.34,5.82v27a5.57,5.57,0,0,1-5.34,5.78H1099a5.6,5.6,0,0,1-5.35-5.78v-27a5.64,5.64,0,0,1,5.35-5.82Z"/><path class="cls-14" d="M1166.36,248.66h74.19a5.61,5.61,0,0,1,5.34,5.82v27a5.57,5.57,0,0,1-5.34,5.78h-74.19Z"/><path class="cls-15" d="M1166.36,254.48h146.72c10.82,0,19.65,9.54,19.65,21.22V649.94c0,11.68-8.83,21.26-19.65,21.26H1166.36Z"/></g><g id="Paragraph"><rect class="cls-16" x="1059.15" y="343.91" width="214.43" height="6.95"/><rect class="cls-17" x="1059.15" y="360.48" width="214.43" height="6.96"/><rect class="cls-16" x="1059.15" y="375.92" width="214.43" height="6.96"/><rect class="cls-16" x="1059.15" y="392.51" width="214.43" height="6.96"/><rect class="cls-17" x="1059.15" y="408.74" width="214.43" height="6.91"/><rect class="cls-16" x="1059.15" y="424.14" width="214.43" height="6.96"/><rect class="cls-16" x="1059.15" y="440.76" width="214.43" height="6.91"/></g><g id="Diagram"><rect class="cls-16" x="1054.59" y="622.52" width="214.43" height="5.7"/><path class="cls-18" d="M1073.8,564h0c3.08,0,5.63,2.27,5.63,5v52h-11.26V569c0-2.74,2.51-5,5.63-5Z"/><path class="cls-19" d="M1095.59,557.83h0a5.64,5.64,0,0,1,5.63,5.56V621H1090V563.39a5.61,5.61,0,0,1,5.63-5.56Z"/><path class="cls-18" d="M1117.39,564.22h0c3.09,0,5.64,2.27,5.64,5v52.22h-11.26V569.24c0-2.75,2.51-5,5.63-5Z"/><path class="cls-19" d="M1141,534.61h0c3.08,0,5.63,3.43,5.63,7.62v79.24h-11.26V542.23c0-4.19,2.51-7.62,5.63-7.62Z"/><path class="cls-18" d="M1163.83,566.76h0c3.12,0,5.63,2.16,5.63,4.83v49.88H1158.2V571.59c0-2.67,2.55-4.83,5.63-4.83Z"/><path class="cls-19" d="M1187,588.75h0c3.08,0,5.59,1.29,5.59,2.88v29.83h-11.22V591.63c0-1.59,2.51-2.88,5.59-2.88Z"/><path class="cls-19" d="M1211,534.9h0c3.11,0,5.63,3.43,5.63,7.62v78.95H1205.4V542.52c0-4.19,2.51-7.62,5.6-7.62Z"/><path class="cls-20" d="M1231.74,540.64h0c3.08,0,5.64,3.22,5.64,7.12v73.71h-11.27V547.75c0-3.9,2.56-7.12,5.63-7.12Z"/><path class="cls-18" d="M1250.67,520.6h0c3.12,0,5.63,4,5.63,8.85v92H1245v-92c0-4.88,2.55-8.85,5.63-8.85Z"/><rect class="cls-21" x="1282.39" y="539.05" width="20.01" height="17.85"/><rect class="cls-22" x="1282.39" y="568.67" width="20.01" height="17.84"/><rect class="cls-23" x="1282.39" y="598.93" width="20.01" height="17.84"/></g></g><g id="Lens"><path class="cls-24" d="M71.71,737a40.76,40.76,0,0,1-57.48,4.43h0A40.77,40.77,0,0,1,9.81,684l145-169.21a40.77,40.77,0,0,1,57.47-4.43h0a40.77,40.77,0,0,1,4.43,57.47Z"/><path class="cls-25" d="M78,720.13a34.57,34.57,0,0,1-48.75,3.76h0a34.56,34.56,0,0,1-3.76-48.74l123-143.54a34.58,34.58,0,0,1,48.75-3.76h0A34.58,34.58,0,0,1,201,576.6Z"/><path class="cls-26" d="M471.33,432.8a146.3,146.3,0,1,1-15.91-206.29A146.31,146.31,0,0,1,471.33,432.8Z"/><path class="cls-27" d="M226.46,541.57a40.65,40.65,0,0,0-42.86-41c-.69,8.55,5.27,20.08,15.93,29.22C208.46,537.47,218.53,541.59,226.46,541.57Z"/><polygon class="cls-28" points="258.33 213.05 258.33 467.34 320.58 483.91 320.58 184.83 258.33 213.05"/><path class="cls-29" d="M502.27,459.32c67.22-78.46,58.12-196.54-20.34-263.76S285.4,137.45,218.18,215.9c-62.27,72.68-59,179.33,4.19,248.08l-31.56,36.84s1.57,35.15,34.88,33.27L259.18,495C336.55,544.8,440.72,531.16,502.27,459.32ZM265,448.71A146.3,146.3,0,1,1,471.33,432.8,146.31,146.31,0,0,1,265,448.71Z"/><path class="cls-30" d="M498,285.89a146.28,146.28,0,0,0-239.71-53C381.19,167.42,461.75,239,498,285.89Z"/></g></g></g></g></g></svg>